<?xml version="1.0" encoding="utf-8"?>
<!-- Generator: Adobe Illustrator 26.1.0, SVG Export Plug-In . SVG Version: 6.00 Build 0)  -->
<svg version="1.1" id="Livello_1" xmlns="http://www.w3.org/2000/svg" xmlns:xlink="http://www.w3.org/1999/xlink" x="0px" y="0px"
	 viewBox="0 0 800 800" style="enable-background:new 0 0 800 800;" xml:space="preserve">
<style type="text/css">
	.st0{fill:#87B5C9;}
	.st1{fill:#253449;}
	.st2{fill:#E6F2F8;}
	.st3{fill:#47576A;}
	.st4{fill:#FAFCFD;}
	.st5{fill:#8FB5CF;}
	.st6{fill:#E3F2F8;}
</style>
<g>
	<circle class="st0" cx="400" cy="400" r="400"/>
	<g>
		<path class="st1" d="M735.3,404.1C726.2,580.1,580.6,720,402.4,720C218.3,720,69.1,570.7,69.1,386.7
			c0-184.1,149.2-333.3,333.3-333.3c78.3,0,150.3,27,207.2,72.3c-35.8-18.8-76.8-29.4-120.3-29.4c-140.2,0-253.9,110.4-253.9,246.6
			c0,87.9,47.3,165.1,118.6,208.7l27.3-8.7l44.9,37.2l2.3,1.5c20.4,5.2,38.7,7.9,60.8,7.9C607.7,589.4,707.2,510.6,735.3,404.1z"/>
		<path class="st2" d="M735.2,404.7C726.1,580.4,580.6,720,402.3,720C218.2,720,69,571.1,69,387.4C69,203.6,218.2,54.7,402.3,54.7
			c78.3,0,150.3,27,207.2,72.1c-35.8-18.7-76.8-29.4-120.3-29.4c-140.2,0-253.9,110.2-253.9,246.1c0,87.7,47.3,164.7,118.6,208.3
			l27.3-8.7l44.9,37.1l2.3,1.5c20.4,5.2,38.7,7.9,60.8,7.9C607.6,589.7,707.1,511.1,735.2,404.7z"/>
		<path class="st3" d="M99.4,473c0,0,5.4,18.9,20.8,19c15,0,31.2-2.2,31.2-2.2l-9.4-6.1c0,0-11.8,11.6-22.9,7.3
			c-11-4.2-12-14.1-12-14.1L99.4,473"/>
		<path class="st4" d="M506.6,83.6c0,0-171.9-61.7-311.4,57.1l-20.9,77.5c0,0-1.9,3-2.9-5.5S174,160,174,160s-90.3,74-97.7,230.1
			c0,0,46.2-81.1,55.1-91.9c8.9-10.7,0,6.6,0,6.6s-31.8,78.2-27.1,85.1c4.7,6.9,2.8,15.7,10.2,13.1s15.7,18.4,17,24.5
			s8.5,31.6,18.3,35.9c9.9,4.2,32.2-5.6,38,5.3c5.8,10.9-0.3,26.4,7.5,36c7.8,9.6,90.6,127.9,99.9,129.2c9.2,1.4,5.7-21.9,11.9-26.3
			s67.2-10.7,82.4,3.7s61.7,40,73,41.5c11.3,1.5-6.8,6-6.9,11.3c-0.1,5.4-11.8,11.4,4.2,13.8c16,2.4,113.7-20.1,116.7-24
			c3-3.9,55.4-57.8,55.4-57.8s-110.1,46-132,37.1c-22-8.9-119.7-72.9-119.9-80.9c0,0-78.1,22.4-81.5,17.9c-3.3-4.5-0.6-65.2-15-70.5
			s-55.7-39.5-57.7-49.7c-2-10.3-9-23.2-24.5-42.1s-26-2.6-34.1,0s-2.7-30.6,4.3-42.7c7-12.1,21.2-56.9,20.5-70.2
			c-0.7-13.3-20.3,10.3-30.2,24.5s-14.7,16.2-14.7,16.2l36.7-128.3C183.6,207.1,314.2,59.1,506.6,83.6z"/>
		<path class="st3" d="M276.6,646.2c1,7.2,4.3,13.8-19,14.5c-7.3,0.2-15.3-9.1-15.3-16c0-6.9,9.7-11.5,17-11.5
			C266.6,633.2,275.6,639.4,276.6,646.2z"/>
		<path class="st4" d="M141.2,476.9c1,7.2,4.3,13.8-19,14.5c-7.3,0.2-15.3-9.1-15.3-16c0-6.9,9.7-11.5,17-11.5
			S140.3,470.1,141.2,476.9z"/>
		<path class="st5" d="M77.8,416.5c0,0,1.7-17.5,8.8,0.1c7.1,17.6,12.4,85.7,38.1,115.7c25.7,29.9,79.1,100.8,86.7,101
			s8.2-30.2,36.8-20.9c28.6,9.3,66.1,25.1,62.2,61.1s172.2,11.9,185.5,7.6s120.1-58.9,131.7-72.9c11.5-14,38-53.7,41.8-55.7
			c3.8-2,13.8-9.8,10.8-3.9c-3,5.8-55.8,78.7-76.6,91.6c-20.9,13-61.3,52.7-133.2,59c-71.9,6.3-183.4-5.7-190.6-17
			c-7.3-11.3,23.4-3.5,20.8-11.8c-2.7-8.2-20-55.7-45.3-48.5c-25.3,7.1-27.8,16.5-25.6,27.1c2.2,10.6,2.2,10.6,2.2,10.6
			s-65.9-47.2-73.3-61.1s-48-70.4-62.7-105S77.8,416.5,77.8,416.5z"/>
		<path class="st6" d="M417.6,669.5c0,0-8.6-5.4-2.6-9.4c6-4,16.2-5.1,18.7-7.8c2.5-2.7,9.7-1.7,12.4-6.4c2.6-4.7,2.6-4.7,2.6-4.7
			L371,598.2c0,0-20.2-6.2-36.6-3.2c-16.4,3-23.9,2.5-23.9,2.5s-3.1,17.8,2.6,22.1s-0.2,1.9,17.2,12.9c17.4,11,35.7,17.5,48.5,28.9
			c12.8,11.4,9.9,15.1,22.2,12.5C413.3,671.3,417.6,669.5,417.6,669.5z"/>
		<path class="st3" d="M102.3,477.8l-3-4.8c0,0,21.2-38.5,50.2-17.7c12.8,9.2,7.2,23.8,4.7,31.5c-1.6,4.9-9.2,4.2-11.2-0.6
			l-6.5-15.2c-0.9-2.2-2.5-4-4.6-5.1c-5.3-2.7-15.8-5-25.3,11.8C105.4,479.7,103.5,479.7,102.3,477.8z"/>
	</g>
</g>
</svg>
