<?xml version="1.0" encoding="utf-8"?>
<!-- Generator: Adobe Illustrator 26.1.0, SVG Export Plug-In . SVG Version: 6.00 Build 0)  -->
<svg version="1.1" id="Livello_1" xmlns="http://www.w3.org/2000/svg" xmlns:xlink="http://www.w3.org/1999/xlink" x="0px" y="0px"
	 viewBox="0 0 800 800" style="enable-background:new 0 0 800 800;" xml:space="preserve">
<style type="text/css">
	.st0{fill:#566266;}
</style>
<circle class="st0" cx="400" cy="400" r="400"/>
<path d="M735.3,404.1C726.2,580.1,580.6,720,402.4,720C218.3,720,69.1,570.7,69.1,386.7c0-184.1,149.2-333.3,333.3-333.3
	c78.3,0,150.3,27,207.2,72.3c-35.8-18.8-76.8-29.4-120.3-29.4c-140.2,0-253.9,110.4-253.9,246.6c0,87.9,47.3,165.1,118.6,208.7
	l27.3-8.7l44.9,37.2l2.3,1.5c20.4,5.2,38.7,7.9,60.8,7.9C607.7,589.4,707.2,510.6,735.3,404.1z"/>
</svg>
